<svg width="144" height="256" viewBox="0 0 144 256" fill="none" xmlns="http://www.w3.org/2000/svg">
<path d="M121 126H23.0004C23.0004 126 54.5 255.5 71.5004 255.5C88.5009 255.5 121 126 121 126Z" fill="#F2F2F2"/>
<path d="M0.500013 81.5C1.30001 101.1 17.1667 110 25 112C43.6667 113.5 87.7 115.6 114.5 112C141.3 108.4 145 88.5 143.5 79C141.5 52.5 116.5 49 114.5 49C127.5 27.5 112.5 8.5 97.5 2.5C85.5 -2.3 81.5 2.5 81 5.5C81.1667 9.33333 79.7 17 72.5 17C65.3 17 55.5 21 51.5 23C36 31 36.5 41.5 32 49C21.5 48.5 -0.499987 57 0.500013 81.5Z" fill="#F2F2F2"/>
</svg>
